<svg width="512" height="512" viewBox="0 0 512 512" fill="none" xmlns="http://www.w3.org/2000/svg">
  <rect width="512" height="512" rx="112" fill="#0F172A"/>
  <path d="M128 172C128 147.699 147.699 128 172 128H252.824C264.492 128 275.682 132.635 283.95 140.889L307.111 164H340C364.301 164 384 183.699 384 208V340C384 364.301 364.301 384 340 384H172C147.699 384 128 364.301 128 340V172Z" fill="url(#paint0_linear_131_4)"/>
  <path d="M208 228H304C315.046 228 324 236.954 324 248V264C324 275.046 315.046 284 304 284H208C196.954 284 188 275.046 188 264V248C188 236.954 196.954 228 208 228Z" fill="white" fill-opacity="0.95"/>
  <path d="M188 308C188 296.954 196.954 288 208 288H276C287.046 288 296 296.954 296 308V312C296 323.046 287.046 332 276 332H208C196.954 332 188 323.046 188 312V308Z" fill="white" fill-opacity="0.78"/>
  <defs>
    <linearGradient id="paint0_linear_131_4" x1="128" y1="128" x2="403.162" y2="364.231" gradientUnits="userSpaceOnUse">
      <stop stop-color="#60A5FA"/>
      <stop offset="0.55" stop-color="#2563EB"/>
      <stop offset="1" stop-color="#1D4ED8"/>
    </linearGradient>
  </defs>
</svg>
