<svg width="256" height="256" viewBox="0 0 256 256" fill="none" xmlns="http://www.w3.org/2000/svg">
  <rect width="256" height="256" rx="56" fill="#0F172A"/>
  <path d="M62 96C62 80.536 74.536 68 90 68H117.698C126.187 68 134.217 71.853 139.529 78.476L151.59 93.524C156.902 100.147 164.932 104 173.421 104H190C205.464 104 218 116.536 218 132V164C218 179.464 205.464 192 190 192H66C50.536 192 38 179.464 38 164V124C38 108.536 50.536 96 66 96H62Z" fill="#2563EB"/>
  <path d="M50 116C50 100.536 62.536 88 78 88H109.698C118.187 88 126.217 91.853 131.529 98.476L143.59 113.524C148.902 120.147 156.932 124 165.421 124H178C193.464 124 206 136.536 206 152V170C206 185.464 193.464 198 178 198H78C62.536 198 50 185.464 50 170V116Z" fill="#38BDF8"/>
  <path d="M86 150H170" stroke="white" stroke-width="14" stroke-linecap="round"/>
  <path d="M114 174H142" stroke="white" stroke-width="14" stroke-linecap="round"/>
</svg>
